<svg id="Capa_1" enable-background="new 0 0 512 512" height="512" viewBox="0 0 512 512" width="512" xmlns="http://www.w3.org/2000/svg"><path d="m375.787 512h-68.787c-8.226 0-14.917-6.625-14.999-14.85l-2-200c-.041-4.005 1.522-7.858 4.339-10.704s6.655-4.446 10.66-4.446h70.787c17.687 0 34.314 6.888 46.82 19.394 6.84 6.84 15.934 10.606 25.607 10.606h48.786c8.284 0 15 6.716 15 15v140c0 8.284-6.716 15-15 15h-48.787c-9.673 0-18.767 3.767-25.607 10.606-12.505 12.506-29.133 19.394-46.819 19.394z" fill="#fabe8c"/><path d="m345 442h-330c-8.284 0-15-6.716-15-15v-412c0-8.284 6.716-15 15-15h330c8.284 0 15 6.716 15 15v412c0 8.284-6.716 15-15 15z" fill="#e1f5ff"/><path d="m345 0h-165v442h165c8.284 0 15-6.716 15-15v-412c0-8.284-6.716-15-15-15z" fill="#c8e1f5"/><path d="m135 210h-20c-19.299 0-35-15.701-35-35v-80c0-19.299 15.701-35 35-35h20c19.299 0 35 15.701 35 35 0 8.284-6.716 15-15 15s-15-6.716-15-15c0-2.757-2.243-5-5-5h-20c-2.757 0-5 2.243-5 5v80c0 2.757 2.243 5 5 5h20c2.757 0 5-2.243 5-5 0-8.284 6.716-15 15-15s15 6.716 15 15c0 19.299-15.701 35-35 35z" fill="#556e87"/><path d="m235 205c-6.826 0-12.791-4.608-14.514-11.214l-30-115c-2.091-8.016 2.712-16.209 10.728-18.301 8.015-2.091 16.209 2.713 18.3 10.729l15.486 59.361 15.486-59.361c2.091-8.016 10.288-12.819 18.3-10.729 8.016 2.092 12.819 10.285 10.728 18.301l-30 115c-1.723 6.606-7.688 11.214-14.514 11.214z" fill="#435569"/><path d="m512 327v65h-127c-25.13 0-46.36-16.94-52.9-40h-95.1c-9.66 0-18.42-3.92-24.75-10.25s-10.25-15.09-10.25-24.75c0-19.33 15.67-35 35-35h138.79c17.68 0 34.31 6.89 46.82 19.39 6.84 6.84 15.93 10.61 25.6 10.61h48.79c8.28 0 15 6.72 15 15z" fill="#ffd0af"/><path d="m195 270h-120c-8.284 0-15-6.716-15-15s6.716-15 15-15h120c8.284 0 15 6.716 15 15s-6.716 15-15 15z" fill="#556e87"/><path d="m195 240h-15v30h15c8.284 0 15-6.716 15-15s-6.716-15-15-15z" fill="#435569"/><path d="m165 330h-90c-8.284 0-15-6.716-15-15s6.716-15 15-15h90c8.284 0 15 6.716 15 15s-6.716 15-15 15z" fill="#556e87"/><path d="m165 390h-90c-8.284 0-15-6.716-15-15s6.716-15 15-15h90c8.284 0 15 6.716 15 15s-6.716 15-15 15z" fill="#556e87"/><path d="m257.007 442h59.993c19.33 0 35 15.67 35 35 0 19.33-15.67 35-35 35h-59.993c-19.33 0-35-15.67-35-35 0-19.33 15.67-35 35-35z" fill="#ffd0af"/></svg>